<svg width="640" height="519" viewBox="0 0 640 519" fill="none" xmlns="http://www.w3.org/2000/svg">
<g clip-path="url(#clip0_147_390)">
<path d="M510.851 94.5371C507.527 131.163 498.057 169.782 483.205 207.045C464.838 253.126 439.745 293.713 410.637 324.42L409.022 323.011C437.989 292.452 462.968 252.044 481.258 206.154C497.788 164.684 507.619 121.529 509.703 81.372L511.767 81.7176C511.548 85.9587 511.243 90.2318 510.851 94.5371Z" fill="#F2F2F2"/>
<path d="M524.091 307.252C483.206 372.296 433.605 418.77 384.423 438.112L383.428 436.288C432.27 417.079 481.581 370.843 522.278 306.097L524.091 307.252Z" fill="#F2F2F2"/>
<path d="M509.859 140.137C506.535 176.763 497.065 215.383 482.213 252.646C463.846 298.726 438.753 339.314 409.645 370.02L408.029 368.612C436.997 338.053 461.976 297.644 480.266 251.755C496.795 210.285 506.627 167.129 508.711 126.972L510.775 127.318C510.556 131.559 510.251 135.832 509.859 140.137Z" fill="#F2F2F2"/>
<path d="M50.8821 234.167H24.0571C23.484 234.168 22.918 234.039 22.4017 233.79C21.8853 233.542 21.432 233.179 21.0757 232.73C20.7238 232.293 20.4754 231.781 20.3494 231.234C20.2234 230.687 20.2229 230.119 20.348 229.571C22.9028 218.298 22.7423 206.58 19.8797 195.381C19.6987 194.643 19.7425 193.869 20.0055 193.156C20.2684 192.444 20.7386 191.827 21.3554 191.384C35.1488 181.464 46.0116 181.752 53.6422 192.241C53.9862 192.719 54.2147 193.271 54.3098 193.852C56.3487 206.109 56.4615 218.609 54.6443 230.901C54.5179 231.808 54.0672 232.639 53.3755 233.239C52.6838 233.84 51.798 234.169 50.8821 234.167Z" fill="#54679E"/>
<path d="M42.5657 207.303H33.3378C32.8275 207.303 32.3381 207.101 31.9773 206.74C31.6165 206.379 31.4138 205.89 31.4138 205.379C31.4138 204.869 31.6165 204.38 31.9773 204.019C32.3381 203.658 32.8275 203.455 33.3378 203.455H42.5657C43.0752 203.457 43.5636 203.66 43.9235 204.02C44.2835 204.381 44.4856 204.87 44.4856 205.379C44.4856 205.889 44.2835 206.378 43.9235 206.739C43.5636 207.099 43.0752 207.302 42.5657 207.303Z" fill="white"/>
<path d="M42.5657 214.051H33.3378C32.8275 214.051 32.3381 213.848 31.9773 213.488C31.6165 213.127 31.4138 212.637 31.4138 212.127C31.4138 211.617 31.6165 211.127 31.9773 210.767C32.3381 210.406 32.8275 210.203 33.3378 210.203H42.5657C43.0752 210.204 43.5636 210.407 43.9235 210.768C44.2835 211.129 44.4856 211.618 44.4856 212.127C44.4856 212.637 44.2835 213.125 43.9235 213.486C43.5636 213.847 43.0752 214.05 42.5657 214.051Z" fill="white"/>
<path d="M42.5657 220.799H33.3378C32.8275 220.799 32.3381 220.596 31.9773 220.235C31.6165 219.874 31.4138 219.385 31.4138 218.875C31.4138 218.364 31.6165 217.875 31.9773 217.514C32.3381 217.153 32.8275 216.951 33.3378 216.951H42.5657C43.0752 216.952 43.5636 217.155 43.9235 217.516C44.2835 217.876 44.4856 218.365 44.4856 218.875C44.4856 219.384 44.2835 219.873 43.9235 220.234C43.5636 220.595 43.0752 220.798 42.5657 220.799Z" fill="white"/>
<path d="M538.399 353.937H511.574C511.001 353.938 510.435 353.81 509.919 353.561C509.402 353.312 508.949 352.95 508.593 352.501C508.241 352.064 507.992 351.552 507.866 351.005C507.74 350.458 507.74 349.889 507.865 349.342C510.42 338.069 510.259 326.35 507.397 315.151C507.216 314.414 507.259 313.639 507.522 312.927C507.785 312.215 508.256 311.598 508.872 311.155C522.666 301.234 533.529 301.522 541.159 312.012C541.503 312.49 541.732 313.041 541.827 313.623C543.866 325.88 543.978 338.38 542.161 350.672C542.035 351.579 541.584 352.41 540.892 353.01C540.201 353.61 539.315 353.94 538.399 353.937Z" fill="#54679E"/>
<path d="M530.083 327.074H520.855C520.345 327.073 519.857 326.87 519.497 326.509C519.137 326.148 518.935 325.66 518.935 325.15C518.935 324.64 519.137 324.152 519.497 323.791C519.857 323.43 520.345 323.227 520.855 323.226H530.083C530.593 323.226 531.082 323.429 531.443 323.79C531.804 324.15 532.006 324.64 532.006 325.15C532.006 325.66 531.804 326.15 531.443 326.511C531.082 326.871 530.593 327.074 530.083 327.074Z" fill="white"/>
<path d="M530.083 333.822H520.855C520.345 333.821 519.857 333.617 519.497 333.257C519.137 332.896 518.935 332.407 518.935 331.898C518.935 331.388 519.137 330.899 519.497 330.539C519.857 330.178 520.345 329.975 520.855 329.974H530.083C530.593 329.974 531.082 330.176 531.443 330.537C531.804 330.898 532.006 331.387 532.006 331.898C532.006 332.408 531.804 332.897 531.443 333.258C531.082 333.619 530.593 333.822 530.083 333.822Z" fill="white"/>
<path d="M530.083 340.569H520.855C520.345 340.568 519.857 340.365 519.497 340.004C519.137 339.644 518.935 339.155 518.935 338.645C518.935 338.136 519.137 337.647 519.497 337.286C519.857 336.926 520.345 336.722 520.855 336.721H530.083C530.593 336.721 531.082 336.924 531.443 337.285C531.804 337.646 532.006 338.135 532.006 338.645C532.006 339.156 531.804 339.645 531.443 340.006C531.082 340.367 530.593 340.569 530.083 340.569Z" fill="white"/>
<path d="M168.272 456.542L166.599 433.272C155.64 427.794 143.509 425.073 131.259 425.347C148.493 438.668 147.112 465.291 159.047 483.512C162.813 489.166 167.803 493.9 173.647 497.364C179.492 500.827 186.041 502.931 192.809 503.52L207.151 511.771C208.791 500.927 208.062 489.857 205.012 479.323C201.962 468.788 196.665 459.04 189.485 450.75C185.411 446.14 180.773 442.06 175.68 438.608C172.545 447.609 168.272 456.542 168.272 456.542Z" fill="#54679E" fill-opacity="0.6"/>
<path d="M471.632 459.916L473.305 436.646C484.264 431.168 496.395 428.447 508.645 428.721C491.411 442.042 492.792 468.665 480.857 486.885C477.091 492.54 472.101 497.274 466.257 500.737C460.412 504.201 453.863 506.305 447.095 506.894L432.753 515.145C431.112 504.301 431.842 493.231 434.892 482.696C437.942 472.162 443.239 462.414 450.419 454.124C454.493 449.513 459.131 445.434 464.224 441.982C467.359 450.983 471.632 459.916 471.632 459.916Z" fill="#54679E" fill-opacity="0.6"/>
<path d="M312.361 197.32C321.212 197.32 328.387 190.145 328.387 181.294C328.387 172.443 321.212 165.269 312.361 165.269C303.51 165.269 296.335 172.443 296.335 181.294C296.335 190.145 303.51 197.32 312.361 197.32Z" fill="#283660"/>
<path d="M320.587 174.615C320.346 174.385 320.026 174.257 319.693 174.257C319.36 174.257 319.039 174.385 318.798 174.615C315.398 177.327 312.344 180.447 309.704 183.904C309.056 182.65 308.408 181.397 307.76 180.143C307.013 178.696 304.828 179.974 305.576 181.42C306.523 183.254 307.471 185.088 308.419 186.921C308.533 187.108 308.694 187.263 308.885 187.371C309.076 187.478 309.292 187.534 309.511 187.534C309.731 187.534 309.946 187.478 310.137 187.371C310.329 187.263 310.489 187.108 310.604 186.921C313.416 182.96 316.778 179.419 320.587 176.404C320.823 176.166 320.955 175.845 320.955 175.51C320.955 175.175 320.823 174.853 320.587 174.615Z" fill="white"/>
<path d="M240.654 226.737L216.488 188.785L244.472 173.798L251.817 202.754L303.567 230.719C305.61 229.983 307.823 229.858 309.936 230.359C312.049 230.86 313.971 231.964 315.467 233.538C316.963 235.112 317.968 237.087 318.361 239.223C318.754 241.358 318.517 243.562 317.679 245.565C316.841 247.568 315.438 249.285 313.642 250.504C311.845 251.724 309.733 252.395 307.562 252.435C305.391 252.475 303.255 251.882 301.415 250.729C299.575 249.576 298.11 247.913 297.199 245.942L240.654 226.737Z" fill="#9C5963"/>
<path d="M198.832 143.266C191.239 154.414 218.223 194.938 218.223 194.938C219.538 192.105 232.104 223.924 234.208 222.045C240.19 216.702 249.554 201.822 254.759 201.158C257.736 200.779 247.856 179.668 247.856 179.668C247.856 179.668 243.34 167.203 237.213 151.279C235.564 146.745 232.795 142.702 229.163 139.526C225.531 136.35 221.155 134.144 216.442 133.115C216.442 133.115 206.425 132.117 198.832 143.266Z" fill="#3F3D56"/>
<path d="M199.203 506.487L210.68 506.486L216.14 462.217L199.2 462.218L199.203 506.487Z" fill="#9C5963"/>
<path d="M196.275 502.74L199.505 502.74L212.118 497.61L218.877 502.739H218.878C222.698 502.739 226.362 504.257 229.063 506.958C231.764 509.659 233.282 513.323 233.282 517.143V517.611L196.276 517.612L196.275 502.74Z" fill="#131E3D"/>
<path d="M252.523 506.487L264 506.486L269.46 462.217L252.521 462.218L252.523 506.487Z" fill="#9C5963"/>
<path d="M249.595 502.74L252.826 502.74L265.438 497.61L272.198 502.739H272.199C276.019 502.739 279.682 504.257 282.384 506.958C285.085 509.659 286.602 513.323 286.603 517.143V517.611L249.596 517.612L249.595 502.74Z" fill="#131E3D"/>
<path d="M257.491 264.467L182.839 266.333C168.661 274.034 168.446 290.701 173.091 310.49C173.091 310.49 171.523 322.252 174.659 325.388C177.796 328.525 179.364 328.525 177.796 334.014C176.228 339.502 184.513 348.467 183.507 349.474C182.501 350.48 180.148 355.969 180.148 355.969L187.989 400.664C187.989 400.664 193.478 478.292 195.047 479.86C196.615 481.429 198.183 479.86 196.615 483.781C195.047 487.702 193.478 486.133 195.047 487.702C196.436 489.199 197.744 490.77 198.967 492.406H217.925C217.925 492.406 219.354 484.565 219.354 483.781C219.354 482.997 220.923 478.292 220.923 477.508C220.923 476.724 219.536 475.338 219.536 475.338C219.057 473.744 218.734 472.107 218.57 470.451C218.57 468.883 213.865 408.505 213.865 408.505L223.275 330.093L246.014 406.937C246.014 406.937 246.014 474.372 247.583 475.94C249.151 477.508 249.151 476.724 248.367 479.86C247.583 482.997 244.446 482.213 246.799 484.565C249.151 486.917 249.935 482.997 249.151 486.918L248.367 490.838L271.891 491.175C271.891 491.175 275.027 484.565 273.459 482.213C271.891 479.86 271.985 480.503 273.898 476.653C275.811 472.803 276.595 472.019 275.811 471.235C275.027 470.451 275.027 466.28 275.027 466.28L271.106 391.255C271.106 391.255 270.322 312.058 270.322 309.706C270.263 308.495 270.486 307.288 270.974 306.178V302.985L267.97 291.671L257.491 264.467Z" fill="#2F2E41"/>
<path d="M212.646 109.24C225.456 109.24 235.841 98.8553 235.841 86.0452C235.841 73.2351 225.456 62.8505 212.646 62.8505C199.836 62.8505 189.452 73.2351 189.452 86.0452C189.452 98.8553 199.836 109.24 212.646 109.24Z" fill="#9C5963"/>
<path d="M224.244 124.57C229.241 127.541 232.23 132.999 233.946 138.554C237.123 148.837 239.035 159.469 239.64 170.214L241.453 202.385L263.899 270.885C244.446 287.346 171.322 274.626 171.322 274.626C171.322 274.626 169.078 273.878 171.322 271.633C173.567 269.388 175.752 271.377 173.507 269.133C171.263 266.888 172.81 269.389 173.558 267.144C174.307 264.899 173.558 266.396 172.81 265.647C172.062 264.899 178.602 258.165 178.602 258.165L172.617 218.845L165.135 139.534C174.113 128.311 192.17 121.695 192.17 121.695L196.836 113.297L220.165 115.163L224.244 124.57Z" fill="#3F3D56"/>
<path d="M231.767 73.7222C233.569 75.0668 234.905 76.9429 235.585 79.0865C235.847 75.5835 235.863 72.0665 235.635 68.5612C235.362 66.098 233.628 65.544 231.62 64.902C229.806 64.322 227.755 63.6668 227.204 61.2756C219.912 54.1826 207.22 54.5403 198.534 57.0144C193.754 58.3759 191.004 60.1251 190.758 61.1498L190.707 61.3608L190.513 61.4578C186.828 63.3 186.111 69.1171 186.159 73.6726C186.248 82.2554 189.212 92.0034 190.881 92.7953C190.97 92.8372 190.992 92.8208 191.03 92.7889C193.544 90.78 196.611 92.9416 197.959 94.1166C198.754 88.7822 201.313 83.8681 205.229 80.1591C209.144 76.45 214.19 74.16 219.559 73.6548C221.313 73.4854 223.052 73.1937 224.765 72.7819C225.634 72.5571 226.527 72.4399 227.425 72.4329C228.97 72.4094 230.485 72.8593 231.767 73.7222Z" fill="#2F2E41"/>
<path d="M375.757 282.949L420.375 237.64L432.13 201.402L413.213 193.751C403.842 203.203 394.196 232.141 394.196 232.141L363.742 273.013C363.499 273.103 363.257 273.199 363.018 273.312C361.616 273.974 360.408 274.986 359.512 276.252C358.615 277.517 358.06 278.992 357.901 280.534C357.741 282.076 357.981 283.633 358.599 285.055C359.217 286.478 360.192 287.716 361.428 288.652C362.665 289.587 364.122 290.188 365.658 290.395C367.195 290.603 368.759 290.411 370.2 289.838C371.64 289.264 372.908 288.329 373.882 287.122C374.855 285.916 375.501 284.478 375.757 282.949Z" fill="#C67F7F"/>
<path d="M408.053 197.896L431.976 204.817L432.065 204.799C440.859 203.092 447.815 188.478 452.102 176.52C453.512 172.575 453.372 168.243 451.71 164.397C450.048 160.552 446.988 157.482 443.148 155.806C440.308 154.59 437.184 154.192 434.129 154.658C431.074 155.123 428.21 156.434 425.862 158.442L413.934 168.713L408.053 197.896Z" fill="#6C63FF"/>
<path d="M387.585 505.141L374.719 505.14L368.599 455.515L387.587 455.516L387.585 505.141Z" fill="#C67F7F"/>
<path d="M390.867 500.94L387.246 500.94L373.107 495.19L365.53 500.939H365.529C361.246 500.939 357.14 502.641 354.112 505.669C351.083 508.697 349.382 512.804 349.382 517.086V517.611L390.866 517.612L390.867 500.94Z" fill="#131E3D"/>
<path d="M444.673 505.141L431.807 505.14L425.687 455.515L444.675 455.516L444.673 505.141Z" fill="#C67F7F"/>
<path d="M447.955 500.94L444.333 500.94L430.195 495.19L422.618 500.939H422.616C418.334 500.939 414.227 502.641 411.199 505.669C408.171 508.697 406.47 512.804 406.47 517.086V517.611L447.954 517.612L447.955 500.94Z" fill="#131E3D"/>
<path d="M464.291 291.388C464.291 291.388 465.793 309.416 462.037 326.692C458.281 343.969 458.281 392.625 458.281 392.625L450.019 487.439L425.231 485.186L418.47 326.692L394.433 380.024L396.687 387.536L393.685 389.414C393.685 389.414 395.936 404.061 394.433 404.061C392.931 404.061 389.175 406.314 389.175 406.314L392.18 483.683L366.641 482.932L357.627 374.015L367.392 311.669L368.143 299.651L371.523 299.79L373.244 294.768L376.406 286.13L464.291 291.388Z" fill="#2F2E41"/>
<path d="M465.589 295.175L465.723 294.987C472.873 284.977 462.119 260.923 460.497 257.436L467.329 255.219L465.79 242.143L465.062 236.314L470.283 231.093L470.297 230.963L473.302 204.672L477.671 187.211C479.317 180.609 479.176 173.689 477.264 167.16C475.352 160.631 471.737 154.728 466.789 150.058L456.691 140.537L444.419 122.378H424.629L417.843 135.196C411.264 136.716 405.427 140.497 401.349 145.878C397.271 151.26 395.21 157.901 395.525 164.646L397.063 198.262L391.042 240.117L391.038 247.692L384.263 255.221L385.743 262.619L380.586 264.829L378.309 275.454C377.367 276.697 371.148 284.99 371.148 287.257C371.148 287.597 371.399 287.926 371.938 288.291C376.176 291.161 399.603 297.012 409.971 292.863C421.016 288.447 464.919 295.072 465.361 295.139L465.589 295.175Z" fill="#283660"/>
<path d="M431.967 116.517C446.443 116.517 458.177 104.782 458.177 90.3067C458.177 75.8313 446.443 64.0968 431.967 64.0968C417.492 64.0968 405.758 75.8313 405.758 90.3067C405.758 104.782 417.492 116.517 431.967 116.517Z" fill="#C67F7F"/>
<path d="M429.457 116.941C433.516 116.899 437.564 116.511 441.557 115.781C445.51 114.87 454.232 108.126 456.609 104.142C458.375 101.181 459.435 96.6026 460.013 93.2829C460.794 88.8895 460.644 84.3811 459.571 80.0496C458.499 75.7181 456.529 71.6601 453.789 68.1383C452.733 66.663 451.297 65.5005 449.635 64.7739C449.488 64.7207 449.336 64.6742 449.184 64.6349C446.774 64.0669 444.588 62.7914 442.908 60.9723C442.582 60.604 442.23 60.2597 441.854 59.942C439.97 58.433 437.755 57.3915 435.39 56.9026C431.571 55.9853 426.107 57.1347 419.151 60.322C415.656 61.9233 411.778 61.4766 408.788 60.9085C408.621 60.8806 408.449 60.897 408.289 60.9562C408.13 61.0154 407.989 61.1153 407.88 61.2459C406.646 62.466 404.996 63.1737 403.261 63.2268C402.2 63.3009 401.123 64.801 399.825 66.7545C399.53 67.1979 399.187 67.7154 398.937 68.0312L398.887 67.4381L398.303 68.1163C397.386 69.1821 396.752 70.4629 396.463 71.8394C396.173 73.2159 396.236 74.6433 396.647 75.9887C397.057 77.3341 397.802 78.5537 398.81 79.534C399.819 80.5143 401.06 81.2234 402.416 81.5952C403.492 81.852 404.592 81.9983 405.698 82.0317C406.368 82.0746 407.062 82.119 407.728 82.2169C409.868 82.5978 411.872 83.5269 413.545 84.9136C415.218 86.3002 416.503 88.0971 417.275 90.1286C417.457 90.5981 417.744 91.0195 418.115 91.3602C418.486 91.7009 418.93 91.9518 419.413 92.0936C419.897 92.2353 420.406 92.2642 420.902 92.1779C421.398 92.0915 421.868 91.8924 422.275 91.5957C422.952 91.04 423.753 90.6562 424.61 90.4772C425.467 90.2981 426.355 90.329 427.198 90.5673C427.931 90.9504 428.51 91.5738 428.837 92.3329C429.234 93.1779 429.873 93.8857 430.673 94.366C433.402 95.6849 433.746 101.831 432.912 106.983C432.107 111.95 430.356 115.573 428.655 115.794C427.344 115.963 427.197 116.061 427.107 116.295L427.028 116.506L427.18 116.696C427.913 116.941 428.689 117.024 429.457 116.941Z" fill="#41342E"/>
<path d="M407.711 200.699L395.113 184.647C382.28 188.181 359.51 208.477 359.51 208.477L312.747 228.77C311.187 228.507 309.584 228.661 308.102 229.215C306.619 229.769 305.309 230.703 304.302 231.925C303.296 233.146 302.629 234.611 302.368 236.172C302.108 237.733 302.263 239.335 302.819 240.817C303.374 242.299 304.311 243.608 305.533 244.613C306.756 245.618 308.221 246.284 309.783 246.542C311.344 246.801 312.946 246.643 314.427 246.086C315.909 245.529 317.217 244.591 318.221 243.367L379.478 226.277L407.711 200.699Z" fill="#C67F7F"/>
<path d="M404.692 204.369L424.571 182.209L425.674 166.508C425.88 163.424 425.219 160.345 423.766 157.618C422.313 154.89 420.126 152.624 417.453 151.074C413.815 148.997 409.524 148.38 405.448 149.346C401.372 150.312 397.815 152.79 395.496 156.279C388.472 166.865 380.916 181.177 384.804 189.247L384.843 189.329L404.692 204.369Z" fill="#283660"/>
<path d="M221.474 287.66L169.808 261.2C166.134 259.318 164.916 254.326 167.095 250.072L200.782 184.296C202.961 180.042 207.723 178.112 211.398 179.994L263.063 206.454C266.738 208.337 267.955 213.329 265.777 217.583L232.09 283.359C229.911 287.613 225.149 289.542 221.474 287.66Z" fill="#54679E"/>
<path d="M212.646 275.496L177.544 257.519C174.102 255.756 172.962 251.081 175.003 247.096L202.989 192.451C205.029 188.467 209.49 186.66 212.932 188.423L255.328 210.136C258.77 211.898 259.91 216.574 257.869 220.558L242.665 250.244C233.576 267.991 227.977 283.348 212.646 275.496Z" fill="white"/>
<path d="M230.001 245.654L198.911 229.731C198.53 229.46 198.26 229.062 198.15 228.608C198.039 228.155 198.095 227.677 198.308 227.261C198.521 226.846 198.876 226.521 199.309 226.345C199.741 226.17 200.223 226.156 200.665 226.306L231.756 242.23C232.136 242.5 232.406 242.899 232.516 243.353C232.627 243.806 232.571 244.284 232.358 244.7C232.145 245.115 231.79 245.44 231.357 245.615C230.925 245.791 230.443 245.805 230.001 245.654Z" fill="#283660"/>
<path d="M202.54 240.132L195.445 236.498C195.065 236.227 194.795 235.828 194.684 235.375C194.574 234.921 194.63 234.443 194.843 234.028C195.056 233.612 195.411 233.287 195.843 233.112C196.276 232.936 196.757 232.923 197.199 233.073L204.294 236.707C204.675 236.978 204.945 237.376 205.055 237.83C205.166 238.283 205.11 238.761 204.897 239.177C204.684 239.592 204.329 239.917 203.896 240.093C203.464 240.268 202.982 240.282 202.54 240.132Z" fill="#6C63FF"/>
<path d="M211.641 253.334L191.98 243.264C191.599 242.993 191.329 242.595 191.219 242.141C191.108 241.688 191.165 241.21 191.377 240.794C191.59 240.379 191.945 240.054 192.378 239.878C192.81 239.703 193.292 239.689 193.734 239.839L213.396 249.909C213.776 250.18 214.046 250.579 214.156 251.032C214.267 251.486 214.211 251.964 213.998 252.379C213.785 252.795 213.43 253.12 212.997 253.295C212.565 253.47 212.083 253.484 211.641 253.334V253.334Z" fill="#283660"/>
<path d="M242.305 221.631L211.214 205.708C210.834 205.437 210.564 205.039 210.453 204.585C210.343 204.132 210.399 203.653 210.612 203.238C210.824 202.822 211.18 202.497 211.612 202.322C212.045 202.147 212.526 202.133 212.968 202.283L244.059 218.206C244.439 218.477 244.709 218.876 244.82 219.329C244.93 219.783 244.874 220.261 244.661 220.676C244.448 221.092 244.093 221.417 243.661 221.592C243.228 221.768 242.747 221.781 242.305 221.631Z" fill="#283660"/>
<path d="M214.844 216.108L207.749 212.475C207.368 212.204 207.098 211.805 206.988 211.352C206.877 210.898 206.933 210.42 207.146 210.004C207.359 209.589 207.714 209.264 208.147 209.089C208.579 208.913 209.061 208.899 209.503 209.05L216.598 212.683C216.978 212.954 217.248 213.353 217.359 213.806C217.469 214.26 217.413 214.738 217.2 215.154C216.987 215.569 216.632 215.894 216.2 216.069C215.767 216.245 215.286 216.259 214.844 216.108Z" fill="#283660"/>
<path d="M223.945 229.311L204.283 219.241C203.903 218.97 203.633 218.572 203.522 218.118C203.412 217.665 203.468 217.186 203.681 216.771C203.894 216.355 204.249 216.03 204.681 215.855C205.114 215.68 205.595 215.666 206.037 215.816L225.699 225.886C226.079 226.157 226.349 226.555 226.46 227.009C226.57 227.462 226.514 227.941 226.301 228.356C226.089 228.771 225.734 229.097 225.301 229.272C224.868 229.447 224.387 229.461 223.945 229.311L223.945 229.311Z" fill="#283660"/>
<path d="M178.661 230.396L166.989 186.944L198.179 181.039L196.502 210.865L237.484 253.062C239.653 252.974 241.802 253.518 243.667 254.629C245.533 255.741 247.035 257.371 247.99 259.321C248.945 261.271 249.312 263.457 249.046 265.612C248.781 267.767 247.894 269.798 246.493 271.458C245.093 273.118 243.24 274.334 241.161 274.959C239.081 275.584 236.865 275.59 234.782 274.977C232.699 274.364 230.839 273.158 229.429 271.506C228.02 269.854 227.121 267.828 226.843 265.675L178.661 230.396Z" fill="#9C5963"/>
<path d="M163.797 138.224C153.21 146.582 166.799 193.334 166.799 193.334C168.903 191.025 171.348 225.148 173.919 223.987C181.228 220.684 194.624 209.297 199.788 210.225C202.741 210.756 199.647 187.654 199.647 187.654C199.647 187.654 199.078 174.408 198.008 157.379C197.795 152.559 196.366 147.872 193.854 143.753C191.342 139.634 187.829 136.218 183.641 133.822C183.641 133.822 174.385 129.866 163.797 138.224Z" fill="#3F3D56"/>
<path d="M339.958 326.842L311.764 313.529C311.161 313.246 310.63 312.83 310.211 312.312C309.792 311.795 309.495 311.189 309.344 310.54C309.191 309.906 309.184 309.245 309.323 308.607C309.462 307.97 309.744 307.372 310.147 306.858C318.313 296.421 323.921 284.215 326.52 271.219C326.717 270.224 327.252 269.328 328.036 268.684C328.819 268.039 329.801 267.686 330.816 267.685C345.195 267.734 355.941 272.984 362.756 283.288C363.115 283.824 363.353 284.432 363.453 285.07C363.554 285.707 363.514 286.359 363.336 286.979C359.39 300.579 353.386 313.494 345.533 325.277C344.95 326.168 344.064 326.817 343.039 327.105C342.014 327.393 340.919 327.3 339.958 326.842Z" fill="#54679E"/>
<path d="M348.252 308.17L326.694 297.99C326.158 297.737 325.744 297.281 325.544 296.723C325.344 296.165 325.374 295.55 325.627 295.013C325.88 294.477 326.336 294.063 326.895 293.863C327.453 293.663 328.068 293.693 328.604 293.946L350.161 304.125C350.427 304.251 350.665 304.427 350.862 304.645C351.06 304.862 351.212 305.116 351.312 305.393C351.411 305.669 351.454 305.963 351.44 306.256C351.426 306.549 351.354 306.837 351.229 307.102C351.103 307.368 350.927 307.606 350.709 307.804C350.492 308.001 350.238 308.154 349.961 308.253C349.685 308.352 349.391 308.395 349.098 308.381C348.805 308.367 348.517 308.295 348.252 308.17H348.252Z" fill="white"/>
<path d="M351.6 301.078L330.043 290.898C329.507 290.645 329.093 290.189 328.893 289.631C328.693 289.073 328.723 288.458 328.976 287.921C329.229 287.385 329.685 286.971 330.243 286.771C330.802 286.571 331.417 286.601 331.953 286.854L353.51 297.034C354.046 297.287 354.46 297.743 354.66 298.301C354.861 298.859 354.831 299.474 354.577 300.011C354.324 300.547 353.868 300.961 353.31 301.161C352.752 301.361 352.137 301.331 351.6 301.078V301.078Z" fill="white"/>
<path d="M322.796 78.454L320.789 78.6738C311.842 43.515 294.5 19.1573 270.635 8.23355C240.298 -5.65243 202.785 3.67226 165.006 34.4903C127.035 65.4657 93.4209 114.393 70.3561 172.263L68.409 171.372C91.5751 113.25 125.362 64.0854 163.546 32.9379C201.921 1.63289 240.2 -7.76018 271.33 6.48938C295.879 17.7261 313.675 42.6112 322.796 78.454Z" fill="#F2F2F2"/>
<path d="M101.41 124.244C96.1626 135.299 91.1712 146.752 86.5746 158.284C60.1235 224.649 46.7192 292.425 47.8145 354.289L45.7472 354.068C44.6507 291.975 58.0936 223.965 84.6276 157.393C89.2374 145.828 94.243 134.343 99.5058 123.257L101.41 124.244Z" fill="#F2F2F2"/>
<path d="M100.418 169.844C95.1703 180.899 90.1789 192.352 85.5823 203.884C59.1312 270.249 45.7268 338.026 46.8222 399.889L44.7549 399.669C43.6584 337.575 57.1013 269.565 83.6353 202.993C88.2451 191.428 93.2507 179.943 98.5135 168.857L100.418 169.844Z" fill="#F2F2F2"/>
<path d="M44.8543 186.428C47.1396 182.993 45.787 178.076 41.8331 175.446C37.8793 172.815 32.8215 173.468 30.5362 176.902C28.2509 180.337 29.6035 185.254 33.5574 187.885C37.5112 190.515 42.5691 189.863 44.8543 186.428Z" fill="#CCCCCC"/>
<path d="M531.479 310.474C533.764 307.04 532.411 302.123 528.458 299.492C524.504 296.861 519.446 297.514 517.161 300.949C514.875 304.383 516.228 309.3 520.182 311.931C524.136 314.562 529.194 313.909 531.479 310.474Z" fill="#CCCCCC"/>
</g>
<defs>
<clipPath id="clip0_147_390">
<rect width="639.904" height="519" fill="white"/>
</clipPath>
</defs>
</svg>
