<svg width="324" height="303" viewBox="0 0 324 303" fill="none" xmlns="http://www.w3.org/2000/svg">
<g clip-path="url(#clip0_219_497)">
<path d="M246.388 71.849H244.728V26.3956C244.728 19.4184 241.957 12.7271 237.023 7.79349C232.09 2.8599 225.398 0.0882416 218.421 0.0882416H122.124C115.147 0.0882416 108.455 2.8599 103.522 7.79349C98.5883 12.7271 95.8167 19.4184 95.8167 26.3956V275.756C95.8167 282.733 98.5883 289.425 103.522 294.358C108.455 299.292 115.147 302.064 122.124 302.064H218.423C225.4 302.064 232.091 299.292 237.025 294.358C241.959 289.425 244.73 282.733 244.73 275.756V104.203H246.388V71.849Z" fill="#3F3D56"/>
<path d="M239.367 24.6353V277.518C239.366 282.808 237.264 287.881 233.524 291.622C229.784 295.363 224.712 297.465 219.422 297.467H121.144C115.852 297.468 110.776 295.366 107.033 291.625C103.291 287.883 101.188 282.808 101.186 277.516V24.6353C101.188 19.3435 103.292 14.2691 107.034 10.528C110.777 6.78697 115.852 4.68567 121.144 4.68625H133.065C132.48 6.12579 132.257 7.68706 132.417 9.23285C132.576 10.7786 133.113 12.2616 133.979 13.5514C134.846 14.8412 136.016 15.8984 137.387 16.63C138.758 17.3616 140.288 17.7452 141.842 17.7471H197.871C199.425 17.745 200.955 17.3612 202.326 16.6294C203.697 15.8976 204.867 14.8402 205.733 13.5502C206.6 12.2602 207.136 10.777 207.295 9.23115C207.455 7.68527 207.232 6.12396 206.646 4.68448H219.416C224.706 4.68542 229.779 6.78693 233.519 10.527C237.26 14.2671 239.363 19.3397 239.365 24.6295L239.367 24.6353Z" fill="#E6E6E6"/>
<path d="M228.895 284.267H111.658C110.657 284.266 109.698 283.868 108.99 283.16C108.282 282.452 107.884 281.493 107.883 280.492V34.0274C107.884 33.0266 108.282 32.0672 108.99 31.3595C109.698 30.6519 110.657 30.2538 111.658 30.2527H228.895C229.896 30.2538 230.855 30.6519 231.563 31.3595C232.271 32.0672 232.669 33.0266 232.67 34.0274V280.492C232.669 281.493 232.271 282.452 231.563 283.16C230.855 283.868 229.896 284.266 228.895 284.267Z" fill="white"/>
<path d="M169.833 113.465C187.672 113.465 202.133 99.0035 202.133 81.1644C202.133 63.3252 187.672 48.8637 169.833 48.8637C151.993 48.8637 137.532 63.3252 137.532 81.1644C137.532 99.0035 151.993 113.465 169.833 113.465Z" fill="#E6E6E6"/>
<path d="M169.388 109.092C184.813 109.092 197.316 96.5885 197.316 81.1644C197.316 65.7403 184.813 53.2366 169.388 53.2366C153.964 53.2366 141.461 65.7403 141.461 81.1644C141.461 96.5885 153.964 109.092 169.388 109.092Z" fill="white"/>
<path d="M170.01 65.324C166.861 65.324 163.782 66.2579 161.164 68.0075C158.545 69.7572 156.504 72.244 155.299 75.1535C154.094 78.0631 153.779 81.2647 154.393 84.3534C155.008 87.4422 156.524 90.2794 158.751 92.5062C160.978 94.7331 163.815 96.2496 166.904 96.864C169.992 97.4784 173.194 97.1631 176.104 95.9579C179.013 94.7527 181.5 92.7118 183.25 90.0933C184.999 87.4748 185.933 84.3963 185.933 81.247C185.933 77.024 184.255 72.9739 181.269 69.9878C178.283 67.0016 174.233 65.324 170.01 65.324ZM170.01 70.101C170.955 70.101 171.879 70.3812 172.664 70.9061C173.45 71.431 174.062 72.177 174.423 73.0499C174.785 73.9228 174.88 74.8833 174.695 75.8099C174.511 76.7366 174.056 77.5877 173.388 78.2558C172.72 78.9239 171.869 79.3789 170.942 79.5632C170.015 79.7475 169.055 79.6529 168.182 79.2913C167.309 78.9298 166.563 78.3175 166.038 77.5319C165.513 76.7464 165.233 75.8228 165.233 74.878C165.233 74.2507 165.357 73.6295 165.597 73.0499C165.837 72.4703 166.189 71.9437 166.632 71.5001C167.076 71.0566 167.602 70.7047 168.182 70.4646C168.762 70.2246 169.383 70.101 170.01 70.101ZM170.01 93.0973C168.123 93.0887 166.267 92.6198 164.602 91.7314C162.937 90.8429 161.514 89.5617 160.456 87.9988C160.533 84.8143 166.825 83.0611 170.01 83.0611C173.195 83.0611 179.487 84.8143 179.564 87.9988C178.505 89.5608 177.082 90.8414 175.418 91.7299C173.753 92.6185 171.897 93.0883 170.01 93.0986V93.0973Z" fill="#283660"/>
<path d="M196.49 124.32H140.608V128.52H196.49V124.32Z" fill="#E6E6E6"/>
<path d="M203.459 135.234H133.131V139.434H203.459V135.234Z" fill="#E6E6E6"/>
<path d="M219.812 166.584H120.741V265.656H219.812V166.584Z" fill="#E6E6E6"/>
<path d="M217.196 168.68H122.316V263.56H217.196V168.68Z" fill="white"/>
<path d="M178.789 177.839H141.855V180.615H178.789V177.839Z" fill="#E6E6E6"/>
<path d="M198.888 185.989H141.855V188.765H198.888V185.989Z" fill="#283660"/>
<path d="M188.929 193.75H142.448V196.526H188.929V193.75Z" fill="#E6E6E6"/>
<path d="M168.99 202.266H141.855V205.042H168.99V202.266Z" fill="#E6E6E6"/>
<path d="M182.809 210.584H141.855V213.36H182.809V210.584Z" fill="#283660"/>
<path d="M178.789 218.954H141.855V221.73H178.789V218.954Z" fill="#E6E6E6"/>
<path d="M198.888 227.103H141.855V229.879H198.888V227.103Z" fill="#283660"/>
<path d="M188.929 234.864H142.448V237.64H188.929V234.864Z" fill="#E6E6E6"/>
<path d="M168.99 243.38H141.855V246.156H168.99V243.38Z" fill="#E6E6E6"/>
<path d="M182.809 251.699H141.855V254.474H182.809V251.699Z" fill="#E6E6E6"/>
<path d="M307.654 215.479C307.39 215.941 307.037 216.347 306.616 216.673C306.195 216.999 305.714 217.238 305.2 217.378C304.687 217.518 304.15 217.556 303.622 217.488C303.094 217.421 302.584 217.251 302.122 216.986C301.66 216.722 301.254 216.369 300.928 215.948C300.603 215.527 300.363 215.046 300.223 214.532C300.083 214.019 300.045 213.482 300.113 212.954C300.18 212.426 300.351 211.916 300.615 211.454C300.624 211.438 300.633 211.422 300.642 211.407C300.756 211.217 300.883 211.036 301.024 210.865L297.614 186.556L297.512 185.828L296.819 180.867L296.717 180.152L297.094 180.17L303.702 180.472L305.474 180.552L305.696 185.077L306.953 210.519C307.609 211.147 308.036 211.978 308.163 212.877C308.29 213.777 308.111 214.693 307.654 215.479Z" fill="#FFB8B8"/>
<path d="M297.531 186.048L305.922 185.278C306.357 185.237 306.758 185.026 307.038 184.69C307.318 184.354 307.454 183.921 307.416 183.486L305.862 166.037C305.787 165.205 305.55 164.395 305.163 163.655C304.776 162.914 304.247 162.258 303.606 161.722C302.965 161.186 302.224 160.781 301.427 160.532C300.63 160.282 299.791 160.191 298.959 160.266C298.127 160.34 297.318 160.578 296.577 160.965C295.837 161.352 295.18 161.881 294.644 162.522C294.108 163.163 293.704 163.903 293.454 164.7C293.204 165.497 293.114 166.336 293.188 167.168C293.199 167.288 293.213 167.408 293.231 167.528L295.747 184.642C295.805 185.035 296.001 185.393 296.301 185.652C296.601 185.911 296.984 186.054 297.38 186.055C297.431 186.056 297.481 186.054 297.531 186.048Z" fill="#283660"/>
<path d="M303.891 171.951C304.74 169.548 304.779 166.932 304.003 164.504C303.227 162.075 301.678 159.967 299.593 158.501C296.429 156.336 292.099 155.559 287.436 161.11C278.111 172.212 275.668 184.424 275.668 184.424L294.764 187.533C294.764 187.533 301.257 179.595 303.891 171.951Z" fill="#283660"/>
<path d="M273.007 297.007H267.562L264.972 276.008H273.008L273.007 297.007Z" fill="#FFB8B8"/>
<path d="M257.064 302.062H274.175V295.451H263.675C261.921 295.451 260.24 296.148 259 297.388C257.76 298.627 257.064 300.309 257.064 302.062Z" fill="#2F2E41"/>
<path d="M317.767 292.259L312.598 293.968L303.548 274.842L311.177 272.32L317.767 292.259Z" fill="#FFB8B8"/>
<path d="M304.215 302.062L320.462 296.692L318.387 290.415L308.418 293.71C307.593 293.983 306.831 294.415 306.173 294.982C305.516 295.549 304.977 296.24 304.587 297.016C304.197 297.792 303.963 298.636 303.899 299.502C303.835 300.368 303.943 301.238 304.215 302.062Z" fill="#2F2E41"/>
<path d="M291.904 152.995C297.928 152.995 302.811 148.112 302.811 142.088C302.811 136.064 297.928 131.181 291.904 131.181C285.88 131.181 280.997 136.064 280.997 142.088C280.997 148.112 285.88 152.995 291.904 152.995Z" fill="#FFB8B8"/>
<path d="M282.354 291.162L287.41 257.791C287.464 257.435 287.64 257.109 287.908 256.868C288.176 256.627 288.519 256.487 288.879 256.472C289.239 256.456 289.593 256.566 289.881 256.782C290.169 256.998 290.373 257.308 290.457 257.658L298.157 289.46C298.278 289.947 298.577 290.371 298.995 290.649C299.413 290.927 299.92 291.039 300.416 290.963L321.654 287.55C321.936 287.505 322.205 287.4 322.442 287.242C322.68 287.084 322.881 286.877 323.033 286.636C323.184 286.394 323.281 286.122 323.319 285.839C323.356 285.557 323.333 285.269 323.25 284.996L295.557 193.693C295.478 193.434 295.469 193.158 295.53 192.894L296.452 188.897C296.553 188.464 296.506 188.009 296.319 187.606C296.131 187.202 295.814 186.873 295.418 186.671C291.647 184.746 282.096 180.746 274.888 185.128C274.654 185.271 274.451 185.459 274.293 185.683C274.134 185.906 274.022 186.16 273.965 186.428L252.331 288.109C252.272 288.385 252.272 288.671 252.332 288.947C252.392 289.224 252.51 289.484 252.678 289.712C252.845 289.939 253.06 290.128 253.306 290.267C253.553 290.405 253.826 290.49 254.107 290.515L280.2 292.852C280.259 292.857 280.318 292.86 280.378 292.86C280.855 292.859 281.317 292.688 281.679 292.376C282.042 292.064 282.28 291.634 282.353 291.161L282.354 291.162Z" fill="#2F2E41"/>
<path d="M299.136 134.382C298.314 133.887 297.585 133.253 296.98 132.508C296.682 132.131 296.486 131.684 296.41 131.21C296.335 130.735 296.383 130.249 296.55 129.799C297.101 128.583 298.738 128.2 300.007 128.613C301.276 129.025 302.257 130.021 303.184 130.981C304 131.825 304.841 132.709 305.227 133.819C305.613 134.929 305.415 136.336 304.451 137.01C303.505 137.671 302.146 137.4 301.236 136.691C300.327 135.981 299.764 134.928 299.227 133.906L299.136 134.382Z" fill="#2F2E41"/>
<path d="M302.831 131.274C302.891 128.201 306.394 125.997 309.42 126.542C312.445 127.087 314.77 129.666 315.934 132.511C318.394 138.522 316.548 145.38 314.178 151.429C311.808 157.478 308.876 163.614 309.222 170.099C309.456 173.605 310.632 176.982 312.626 179.874C314.621 182.766 317.359 185.066 320.552 186.53C317.138 188.078 313.057 186.479 310.188 184.066C303.816 178.709 301.357 169.169 304.343 161.399C305.816 157.566 308.412 154.287 310.439 150.716C312.466 147.145 313.953 142.937 312.907 138.966C311.86 134.996 307.407 131.781 303.599 133.317L302.831 131.274Z" fill="#2F2E41"/>
<path d="M291.25 146.928C292.201 145.321 293.16 143.212 291.422 141.807C291.044 141.516 290.612 141.303 290.151 141.181C289.689 141.059 289.208 141.03 288.736 141.097C286.776 141.333 284.643 141.43 282.746 140.718C282.035 140.474 281.38 140.088 280.82 139.586C280.261 139.083 279.808 138.473 279.489 137.791C278.512 135.472 279.736 132.653 281.782 131.186C283.034 130.322 284.514 129.846 286.035 129.819C287.557 129.792 289.052 130.215 290.334 131.035C292.986 129.864 296.202 130.385 298.611 131.997C301.019 133.609 302.667 136.19 303.563 138.947C304.387 141.319 304.529 143.876 303.973 146.325C303.524 148.029 302.672 149.6 301.488 150.904C300.304 152.209 298.823 153.209 297.171 153.821C296.527 154.074 295.828 154.155 295.144 154.053C294.459 153.952 293.814 153.673 293.271 153.243C293.271 153.243 291.768 151.931 291.298 150.351C290.936 149.135 290.742 147.786 291.25 146.928Z" fill="#2F2E41"/>
<path d="M258.893 156.66C258.948 156.9 258.983 157.144 258.999 157.389L278.076 168.394L282.713 165.725L287.656 172.196L279.906 177.719C279.28 178.166 278.526 178.397 277.757 178.378C276.989 178.359 276.247 178.092 275.643 177.615L255.97 162.096C255.082 162.425 254.115 162.476 253.198 162.242C252.28 162.008 251.456 161.5 250.834 160.786C250.212 160.071 249.822 159.185 249.717 158.244C249.611 157.302 249.795 156.352 250.243 155.517C250.691 154.683 251.383 154.005 252.226 153.573C253.069 153.142 254.023 152.977 254.962 153.101C255.901 153.225 256.779 153.632 257.481 154.268C258.183 154.904 258.675 155.738 258.891 156.66H258.893Z" fill="#FFB8B8"/>
<path d="M278.714 168.915L284.88 176.906C285.055 177.133 285.277 177.32 285.531 177.453C285.785 177.587 286.065 177.664 286.352 177.68C286.638 177.696 286.925 177.649 287.192 177.544C287.459 177.44 287.7 177.278 287.899 177.072L294.879 169.824C296.06 168.945 296.844 167.633 297.057 166.176C297.271 164.72 296.897 163.238 296.018 162.057C295.139 160.876 293.827 160.092 292.37 159.879C290.914 159.665 289.432 160.039 288.251 160.918C288.19 160.963 288.131 161.009 288.073 161.056L279.319 165.951C279.068 166.091 278.851 166.284 278.681 166.515C278.512 166.747 278.394 167.013 278.337 167.294C278.279 167.576 278.283 167.866 278.348 168.146C278.413 168.426 278.537 168.688 278.713 168.915L278.714 168.915Z" fill="#283660"/>
<path d="M54.9426 187.96C54.7247 188.059 54.5152 188.176 54.316 188.309L34.3981 179.808L33.6876 174.561L25.7288 174.513L26.199 186.547L52.4886 193.501C52.544 193.683 52.6104 193.862 52.6876 194.037C53.0677 194.848 53.679 195.529 54.4447 195.994C55.2104 196.458 56.0963 196.687 56.9913 196.649C57.8863 196.612 58.7503 196.312 59.475 195.785C60.1996 195.259 60.7525 194.53 61.0642 193.69C61.376 192.85 61.4326 191.937 61.2271 191.065C61.0215 190.193 60.563 189.402 59.909 188.79C59.255 188.178 58.4348 187.772 57.5512 187.625C56.6677 187.478 55.7603 187.594 54.943 187.961L54.9426 187.96Z" fill="#A0616A"/>
<path d="M22.8343 297.008H28.2787L30.8686 276.008H22.8334L22.8343 297.008Z" fill="#A0616A"/>
<path d="M32.1675 295.452H21.6676V302.061H38.7785C38.7785 300.308 38.082 298.626 36.8422 297.386C35.6024 296.146 33.9208 295.45 32.1675 295.45H32.1674L32.1675 295.452Z" fill="#2F2E41"/>
<path d="M1.6604 295.469L7.07819 296.002L11.7148 275.358L3.71827 274.572L1.6604 295.469Z" fill="#A0616A"/>
<path d="M11.1044 294.837L0.657096 293.808L0.00921631 300.386L17.0341 302.063C17.1192 301.199 17.0333 300.327 16.7813 299.497C16.5293 298.666 16.1162 297.893 15.5656 297.222C15.0149 296.551 14.3375 295.995 13.572 295.586C12.8065 295.177 11.9678 294.922 11.104 294.837L11.1044 294.837Z" fill="#2F2E41"/>
<path d="M21.3185 152.288C27.3423 152.288 32.2256 147.405 32.2256 141.381C32.2256 135.357 27.3423 130.474 21.3185 130.474C15.2947 130.474 10.4114 135.357 10.4114 141.381C10.4114 147.405 15.2947 152.288 21.3185 152.288Z" fill="#A0616A"/>
<path d="M29.4954 292.761C29.9635 292.762 30.4169 292.598 30.7756 292.297C31.1343 291.997 31.3753 291.579 31.456 291.118C34.272 275.478 43.4853 224.328 43.7056 222.91C43.7105 222.878 43.7129 222.845 43.7127 222.812V218.998C43.7131 218.859 43.6697 218.723 43.5888 218.611L42.372 216.906C42.3142 216.824 42.2383 216.757 42.1502 216.708C42.0622 216.66 41.9642 216.633 41.864 216.629C34.9265 216.304 12.2065 215.35 11.1087 216.721C10.0065 218.098 10.3982 222.276 10.487 223.098L10.4826 223.184L0.275362 288.464C0.195406 288.985 0.323687 289.516 0.632444 289.943C0.941201 290.369 1.40559 290.657 1.92512 290.744L8.30035 291.795C8.77515 291.871 9.26155 291.774 9.67107 291.522C10.0806 291.27 10.386 290.879 10.5319 290.421C12.5036 284.121 19.1155 262.925 21.4069 254.723C21.4216 254.671 21.4545 254.627 21.4995 254.597C21.5445 254.568 21.5985 254.556 21.6517 254.564C21.7048 254.571 21.7535 254.598 21.7886 254.638C21.8237 254.679 21.8429 254.731 21.8426 254.785C21.728 262.603 21.4514 282.55 21.3541 289.439L21.3439 290.181C21.3397 290.684 21.524 291.169 21.8606 291.542C22.1971 291.915 22.6614 292.148 23.1615 292.196L29.3089 292.753C29.3709 292.759 29.4332 292.761 29.4954 292.761Z" fill="#2F2E41"/>
<path d="M28.2409 156.577C30.1443 157.709 31.2833 159.788 31.937 161.906C33.147 165.823 33.8753 169.873 34.1059 173.967L34.7969 186.223L43.3477 218.717C35.9364 224.988 31.6617 223.562 21.685 218.433C11.7082 213.304 10.5687 220.143 10.5687 220.143L8.57393 192.496L5.72382 162.284C6.36369 161.513 7.08792 160.817 7.88294 160.208C10.5173 158.159 13.5824 156.735 16.8472 156.043C20.112 155.35 23.4914 155.408 26.7306 156.212L28.2409 156.577Z" fill="#E6E6E6"/>
<path d="M31.0182 194.522C30.7883 194.608 30.5656 194.712 30.352 194.833L10.6571 184.974L10.3302 179.634L2.20619 179.074L1.771 191.247L28.0899 199.951C28.3046 200.874 28.7951 201.709 29.496 202.345C30.1969 202.982 31.0751 203.39 32.0137 203.516C32.9524 203.641 33.9069 203.478 34.7504 203.047C35.5939 202.617 36.2863 201.94 36.7356 201.106C37.1849 200.273 37.3698 199.322 37.2656 198.381C37.1613 197.44 36.773 196.552 36.1523 195.837C35.5315 195.122 34.7077 194.613 33.7905 194.378C32.8733 194.142 31.9062 194.192 31.0177 194.519L31.0182 194.522Z" fill="#A0616A"/>
<path d="M5.8659 162.42C1.02053 164.13 0.166565 182.658 0.166565 182.658C5.86723 179.523 12.7078 184.654 12.7078 184.654C12.7078 184.654 14.1329 179.808 15.8431 173.537C16.3595 171.774 16.4212 169.908 16.0226 168.114C15.624 166.32 14.7779 164.656 13.5631 163.276C13.5631 163.276 10.7117 160.709 5.8659 162.42Z" fill="#E6E6E6"/>
<path d="M11.5408 144.266C12.8997 143.179 14.7537 145.154 14.7537 145.154L15.8408 135.37C15.8408 135.37 22.6352 136.184 26.9846 135.099C31.3339 134.013 32.0129 139.04 32.0129 139.04C32.2371 137.009 32.2826 134.963 32.1488 132.924C31.877 130.478 28.3439 128.032 22.0926 126.401C15.8413 124.771 12.5799 131.837 12.5799 131.837C8.22885 134.011 10.1801 145.353 11.5408 144.266Z" fill="#2F2E41"/>
</g>
<defs>
<clipPath id="clip0_219_497">
<rect width="323.327" height="301.975" fill="white" transform="translate(0.00915527 0.0882416)"/>
</clipPath>
</defs>
</svg>
